<?xml version="1.0" encoding="UTF-8"?>
<svg xmlns="http://www.w3.org/2000/svg" width="225" height="79" viewBox="0 0 225 79" fill="none">
  <path d="M219.479 31.2918C219.704 31.2918 219.934 31.2296 220.137 31.0962L223.695 28.7844C224.256 28.4209 224.415 27.671 224.052 27.1098C223.688 26.5485 222.938 26.3898 222.377 26.7532L218.818 29.065C218.257 29.4285 218.098 30.1784 218.462 30.7397C218.694 31.0962 219.083 31.2918 219.479 31.2918Z" fill="#365F3D"></path>
  <path d="M19.0696 33.3274C18.5934 33.9508 18.1241 34.5788 17.6687 35.2183C15.6329 38.0845 13.8501 41.1302 12.4584 44.3621C11.4072 46.9086 10.6113 49.554 10.1443 52.2706C9.94646 53.4162 8.59847 53.9499 7.59093 53.7199C7.09636 53.6071 6.60179 53.1954 6.35105 52.7652C6.05201 52.2545 6.04511 51.7301 6.14172 51.1665C6.33265 50.0531 6.57648 48.949 6.87552 47.8586C8.03949 43.5823 9.96027 39.5015 12.3204 35.7589C14.3585 32.5223 16.7324 29.4836 19.2605 26.6174C22.0117 23.4981 25.0136 20.602 28.2456 17.9842C31.1026 15.6678 34.1091 13.5469 37.2537 11.6445C35.2271 10.5289 33.1729 9.48453 31.0474 8.5736C27.6866 7.1796 24.1878 6.10765 20.5832 5.58547C18.0873 5.27263 15.5662 5.24272 13.068 5.55097C11.1725 5.83161 9.31157 6.31008 7.53802 7.03698C6.7306 7.39123 5.92319 7.79149 5.20319 8.29986C4.96855 8.49999 4.75002 8.71852 4.54759 8.95315C4.43488 9.12108 4.33136 9.2936 4.23935 9.47303C4.19794 9.59495 4.16344 9.71916 4.13353 9.84568C4.12893 9.9515 4.12893 10.0573 4.13353 10.1608C4.16344 10.2896 4.20024 10.4185 4.24165 10.545C4.33826 10.7382 4.44868 10.9222 4.5706 11.1017C4.99156 11.6031 5.46082 12.0586 5.96919 12.4727C6.67079 12.981 7.4253 13.4066 8.21662 13.7608C9.5232 14.2853 10.8896 14.6281 12.2813 14.8397C14.255 15.0789 16.254 15.0605 18.2276 14.819C18.5658 14.7684 18.9016 14.7155 19.2375 14.6511C20.3831 14.4348 21.4205 14.9593 21.7909 16.1003C21.9519 16.5994 21.8415 17.255 21.5815 17.7013C21.34 18.1154 20.827 18.5639 20.3417 18.6559C19.7252 18.7733 19.1041 18.8607 18.4807 18.9412C14.2987 19.4933 9.90966 19.07 6.04741 17.3148C4.10363 16.4315 2.36458 15.0812 1.0994 13.3583C0.156264 12.0816 -0.168082 10.5312 0.0803531 8.98306C0.285082 7.70638 1.07179 6.4849 1.99423 5.60388C2.89366 4.74125 3.98861 4.12707 5.10887 3.60259C6.27974 3.05511 7.49201 2.58815 8.73419 2.23159C11.0874 1.5599 13.5626 1.23095 16.0055 1.17804C21.0271 1.06763 26.0511 2.20629 30.7207 3.99365C33.1729 4.93218 35.579 6.02024 37.8932 7.26011C39.1077 7.91111 40.3085 8.592 41.5254 9.2361C44.2306 7.81909 47.0071 6.54241 49.8296 5.37154C53.747 3.74521 57.7611 2.35351 61.8189 1.12284C63.015 0.759384 64.2181 0.402833 65.4534 0.209606C67.0429 -0.0365294 68.7567 -0.215955 70.2335 0.573058C72.7799 1.93485 72.6603 5.39915 71.3146 7.55686C68.6946 11.7619 63.9398 13.8759 59.3161 15.0444C54.4141 16.282 49.0014 16.6063 44.157 14.9386C43.2897 14.6419 42.4455 14.2899 41.6174 13.9081C38.3808 15.7253 35.2662 17.7542 32.3172 20.0131C31.2659 20.8344 30.2331 21.6786 29.2278 22.555C25.4967 25.8008 22.1037 29.4238 19.0673 33.3251M50.614 9.51213C49.2637 10.0872 47.9249 10.6876 46.5999 11.3225C47.2785 11.4996 47.9686 11.6422 48.6679 11.7504C50.7336 11.9965 52.8177 11.9551 54.8811 11.6997C57.3907 11.3363 59.9096 10.7037 62.2582 9.74677C63.3716 9.2522 64.432 8.64491 65.412 7.91801C66.1274 7.33832 66.7853 6.69423 67.3673 5.97883C67.5927 5.67289 67.7974 5.35544 67.9653 5.01499C68.0275 4.83557 68.0781 4.65154 68.1172 4.46521C68.1218 4.3686 68.1241 4.27199 68.1218 4.17767C68.0965 4.17077 68.0689 4.16387 68.0436 4.15927C67.5697 4.12937 67.0935 4.15697 66.622 4.20758C65.274 4.41461 63.9651 4.80796 62.6631 5.20592C58.5823 6.4504 54.5498 7.8628 50.614 9.51213Z" fill="#365F3D"></path>
  <path d="M125.975 35.8345C125.168 34.62 123.992 33.6699 122.552 33.3226C119.309 32.5382 116.452 34.7005 114.37 36.9433C113.054 38.3626 112 40.0096 110.843 41.5554C110.744 41.6866 110.643 41.8177 110.544 41.9488C109.514 43.2646 108.403 44.5344 107.096 45.5833C106.611 45.9376 106.098 46.2527 105.555 46.5104C105.472 46.5426 105.389 46.5771 105.307 46.6047C104.791 46.7818 104.347 47.0785 104.067 47.5593C103.807 48.0033 103.696 48.6612 103.857 49.1603C104.021 49.6618 104.331 50.1472 104.812 50.4002C105.288 50.6509 105.886 50.7913 106.413 50.6095C110.291 49.2684 112.888 45.7949 115.205 42.6021C115.644 41.9971 116.079 41.3875 116.53 40.7894C117.259 39.8716 118.087 39.0136 118.998 38.2752C119.408 37.9738 119.838 37.707 120.298 37.4885C120.505 37.4149 120.719 37.355 120.935 37.309C121.08 37.2998 121.222 37.3021 121.365 37.309C121.496 37.3366 121.627 37.3734 121.754 37.4149C121.864 37.4724 121.972 37.5345 122.076 37.6035C122.179 37.6978 122.276 37.7967 122.37 37.9025C122.492 38.0842 122.6 38.2706 122.697 38.4661C122.858 38.8986 122.973 39.3471 123.047 39.8049C123.109 40.4651 123.102 41.1299 123.033 41.7901C122.89 42.6964 122.653 43.5958 122.324 44.4516C122.09 44.9691 121.811 45.466 121.48 45.9284C121.25 46.1998 120.999 46.4505 120.73 46.6829C120.463 46.8692 120.183 47.0348 119.888 47.1751C119.638 47.2649 119.38 47.3362 119.118 47.3891C118.922 47.4029 118.729 47.4029 118.533 47.3891C118.508 47.3845 118.483 47.3822 118.46 47.3753C117.915 47.258 117.351 47.2971 116.859 47.5846C116.429 47.8376 116.017 48.3299 115.904 48.8245C115.782 49.3559 115.81 49.9539 116.113 50.4255C116.396 50.8649 116.827 51.2674 117.353 51.3801C119.056 51.7459 120.769 51.4469 122.29 50.6049C123.659 49.8458 124.779 48.6405 125.543 47.2856C126.263 46.0066 126.729 44.5758 126.996 43.1381C127.215 41.9557 127.321 40.7457 127.171 39.5496C127.01 38.2499 126.713 36.9456 125.975 35.8368" fill="#365F3D"></path>
  <path d="M101.541 36.357C102.093 36.3317 102.613 36.6032 103.008 36.9643C103.39 37.314 103.615 37.9235 103.615 38.4319C103.615 38.9748 103.381 39.5131 103.008 39.8995C102.707 40.2124 102.424 40.539 102.155 40.8772C101.589 41.6524 101.11 42.4851 100.719 43.3615C100.551 43.7848 100.411 44.2149 100.324 44.6635C100.298 44.9717 100.298 45.2777 100.324 45.5859C100.367 45.7999 100.425 46.0115 100.496 46.2185C100.558 46.3404 100.627 46.4601 100.703 46.5751C100.791 46.674 100.885 46.766 100.984 46.8534C101.214 47.0213 101.403 47.2284 101.552 47.4768C101.621 47.6424 101.692 47.8081 101.761 47.9737C101.934 48.5074 101.807 49.0916 101.552 49.5747C101.315 50.0233 100.793 50.3959 100.312 50.5293C99.8475 50.6582 99.1183 50.6214 98.7135 50.32C98.4237 50.1038 98.1246 49.8898 97.8716 49.6299C97.6277 49.3792 97.4161 49.0916 97.2114 48.8087C96.8939 48.3647 96.6777 47.8426 96.4983 47.3319C96.328 46.8511 96.2636 46.3496 96.2015 45.8436C95.5321 46.4348 94.8627 47.0236 94.1841 47.6033C93.2272 48.4199 92.2726 49.2711 91.219 49.9612C90.1402 50.6697 88.9141 51.1734 87.6144 51.2424C86.1192 51.323 84.5757 50.5316 83.8166 49.232C83.1564 48.1002 83.1426 46.6901 83.5129 45.4594C83.8235 44.4243 84.3456 43.5317 84.992 42.6783C85.6591 41.795 86.3515 40.9301 86.9864 40.0237C87.412 39.4165 87.8214 38.7862 88.1389 38.1122C88.1941 37.9626 88.2424 37.8108 88.2815 37.6544C88.2194 37.636 88.1573 37.6199 88.0952 37.6061C87.9894 37.6015 87.8858 37.6015 87.78 37.6061C87.5247 37.659 87.2763 37.7349 87.0324 37.8269C85.5855 38.4779 84.2375 39.3934 82.9769 40.3527C82.3121 40.8726 81.6635 41.4108 81.0309 41.9721C78.7581 43.9918 76.6763 46.2369 74.8039 48.6339C74.5025 49.0295 74.2058 49.4275 73.9183 49.8323C73.7342 50.1452 73.4858 50.3936 73.1729 50.5776C73.0073 50.6467 72.8417 50.718 72.6761 50.787C72.1424 50.9595 71.5581 50.833 71.0751 50.5776C70.6265 50.3407 70.2538 49.8185 70.1204 49.3378C69.9801 48.8248 70.0537 48.1968 70.3297 47.7367C70.6541 47.2008 70.9324 46.6395 71.1855 46.0644C71.4776 45.3444 71.7352 44.6129 71.9745 43.8745C72.1424 43.3546 72.3034 42.8301 72.4621 42.308C70.8565 43.6031 69.2279 44.8751 67.5854 46.1265C65.4484 47.7528 63.2769 49.3378 61.0824 50.8859C60.2911 52.5076 59.4998 54.1271 58.6947 55.7419C57.4433 58.2492 56.1344 60.7267 54.7496 63.1627C53.0451 66.1624 51.2623 69.1229 49.4405 72.0535C48.7044 73.2359 47.89 74.3814 46.9538 75.412C46.3626 76.0607 45.7116 76.622 45.0146 77.1533C44.2854 77.71 43.5033 78.108 42.6545 78.4553C41.8126 78.7981 40.8878 78.9614 39.9838 78.9959C39.3972 79.0189 38.8152 78.9407 38.2356 78.851C37.8445 78.7912 37.4534 78.6969 37.0785 78.5634C35.3878 77.9654 33.9224 76.8313 33.046 75.2441C32.6412 74.5126 32.3375 73.7005 32.211 72.8747C32.1282 72.3433 32.0592 71.812 32.0707 71.2737C32.0822 70.7239 32.1581 70.1718 32.2547 69.6336C32.4364 68.6237 32.8321 67.6438 33.2968 66.7351C33.8419 65.6701 34.5757 64.6948 35.3648 63.7999C36.8255 62.1437 38.6266 60.844 40.4393 59.6041C42.6545 58.0882 44.9272 56.6551 47.1838 55.2013C49.2196 53.8901 51.2485 52.5674 53.2636 51.224C53.2038 51.2378 53.144 51.2539 53.0842 51.2677C51.9478 51.5093 50.7608 51.5898 49.6268 51.2815C48.3777 50.9411 47.3702 50.159 46.6456 49.1031C46.3534 48.6776 46.1487 48.1784 45.99 47.6907C45.8243 47.1847 45.7553 46.6395 45.7139 46.1127C45.6518 45.3329 45.7944 44.5554 45.967 43.7986C46.1165 43.1522 46.3005 42.5127 46.5213 41.8824C46.1694 41.9951 45.8174 42.1032 45.4609 42.2022C44.3797 42.5058 43.2848 42.7358 42.1806 42.9153C41.4307 44.3346 40.5405 45.6618 39.526 46.9063C38.6726 47.953 37.7019 48.8455 36.6253 49.6575C34.9599 50.9135 32.8827 51.76 30.7802 51.7761C30.2488 51.7807 29.7105 51.7094 29.1884 51.6128C28.8548 51.5507 28.5282 51.4518 28.213 51.323C27.2929 50.9457 26.4418 50.458 25.7632 49.7104C24.452 48.2589 23.8332 46.2967 24.0103 44.3507C24.0103 43.9757 24.1069 43.6261 24.2933 43.3017C24.4014 43.1614 24.5095 43.0211 24.6176 42.8807C24.9926 42.4736 25.5492 42.2965 26.0852 42.2735C26.6028 42.2505 27.194 42.5219 27.5528 42.8807C27.8979 43.2258 28.2061 43.8469 28.1601 44.3484C28.1256 44.7187 28.1233 45.0891 28.1555 45.4571C28.2038 45.7171 28.2751 45.9701 28.3626 46.2208C28.45 46.3956 28.5512 46.5659 28.6616 46.7292C28.7812 46.8649 28.9077 46.9914 29.0411 47.1087C29.2022 47.2169 29.3701 47.3158 29.5449 47.4032C29.775 47.486 30.0096 47.5504 30.2511 47.5987C30.5801 47.6263 30.9113 47.6263 31.2403 47.5987C31.7348 47.5113 32.2179 47.3733 32.6849 47.1893C33.2876 46.9086 33.8557 46.5613 34.394 46.1702C35.2589 45.4732 36.0295 44.6704 36.7196 43.8032C36.8393 43.6445 36.9566 43.4834 37.0716 43.3224C35.7374 43.3017 34.4055 43.1798 33.0828 42.9544C32.2616 42.814 31.445 42.6208 30.6583 42.3425C29.9843 42.1032 29.2689 41.8318 28.6846 41.4085C28.2291 41.0773 27.9002 40.8059 27.5942 40.3274C27.1411 39.6189 27.1572 38.7632 27.2952 37.9649C27.4999 36.7803 28.3372 35.8118 29.2758 35.1263C29.8693 34.6939 30.541 34.3488 31.2127 34.0521C32.0638 33.6748 32.9287 33.3298 33.8396 33.1205C34.6862 32.9249 35.5856 32.7915 36.4574 32.8444C37.9066 32.9318 39.4225 33.2999 40.6486 34.105C41.3847 34.5904 41.946 35.1401 42.4567 35.8532C42.6016 36.0557 42.7212 36.2742 42.8224 36.5019C42.9903 36.8884 43.1606 37.2702 43.2388 37.6866C43.2894 37.9511 43.3216 38.2088 43.34 38.4641C44.8582 38.0961 46.3488 37.6038 47.7957 37.008C48.801 36.5709 49.7809 36.0856 50.7378 35.5542C52.263 34.3166 54.0618 33.339 56.0286 33.0606C56.6037 32.9801 57.1742 32.9042 57.7561 32.9226C58.3404 32.941 58.9339 33.0146 59.5044 33.1412C60.0427 33.2608 60.5487 33.4747 61.0502 33.6978C61.3976 33.8543 61.7311 34.0429 62.044 34.2614C62.9549 34.9009 63.691 35.6301 64.3213 36.5502C64.6318 37.0034 64.8458 37.4911 65.0551 37.9995C65.1954 38.3399 65.3081 38.6895 65.3725 39.0553C65.5681 40.1434 65.5681 41.2521 65.2115 42.3126C65.1379 42.5311 65.0551 42.7404 64.9631 42.9452C65.4461 42.5794 65.9292 42.2114 66.41 41.841C67.0449 41.351 67.6752 40.8565 68.3055 40.3573C70.8105 38.3698 73.265 36.3202 75.6665 34.2085C76.0967 33.829 76.5636 33.6265 77.1341 33.6012C77.6862 33.5759 78.2061 33.8451 78.6017 34.2085C78.9836 34.5582 79.209 35.1677 79.209 35.6761C79.209 35.7198 79.2044 35.7635 79.2021 35.8072C79.209 36.1914 79.117 36.5893 78.9261 36.9068C78.6017 37.4428 78.3234 38.0041 78.0703 38.5791C77.9714 38.823 77.8748 39.0691 77.7851 39.3152C79.0503 38.1674 80.3799 37.0908 81.7785 36.1132C82.7032 35.4645 83.667 34.8687 84.6792 34.3649C85.4061 34.0038 86.1721 33.6679 86.9818 33.5506C87.3154 33.5023 87.6535 33.4448 87.9917 33.4494C88.316 33.4517 88.645 33.5046 88.9624 33.5552C89.3305 33.615 89.664 33.7415 90.0067 33.8865C90.7866 34.2154 91.403 34.7008 91.8838 35.4001C92.2749 35.966 92.4382 36.6929 92.4635 37.3715C92.475 37.7234 92.4129 38.0823 92.3554 38.425C92.3232 38.6136 92.2795 38.8 92.222 38.9817C92.054 39.5108 91.824 40.026 91.5687 40.5183C91.0074 41.5926 90.2621 42.5702 89.5283 43.5294C88.8474 44.4197 88.086 45.2869 87.6006 46.3036C87.527 46.5107 87.4672 46.72 87.4212 46.9339C87.4189 46.9845 87.4166 47.0374 87.4166 47.088C87.4741 47.088 87.5316 47.088 87.5914 47.0857C87.7846 47.042 87.9756 46.9845 88.1619 46.9178C88.6703 46.674 89.1464 46.3726 89.5996 46.0391C90.3334 45.4594 91.0419 44.8429 91.7504 44.231C94.5384 41.8226 97.2275 39.2991 100.078 36.9597C100.338 36.7021 100.641 36.5249 100.993 36.426C101.177 36.4007 101.361 36.3777 101.545 36.3524M31.8706 38.3767C32.7332 38.678 33.6349 38.8713 34.5366 39.0093C36.0848 39.2025 37.6513 39.2301 39.2086 39.122C39.2155 38.984 39.2178 38.846 39.2086 38.708C39.1833 38.5906 39.1534 38.4756 39.1143 38.3606C39.0614 38.2571 39.0016 38.1582 38.9372 38.0616C38.8359 37.9488 38.7255 37.843 38.6128 37.7418C38.4035 37.5992 38.185 37.4727 37.9595 37.3623C37.5524 37.2104 37.1337 37.1 36.7058 37.0241C36.2757 36.985 35.8478 36.9873 35.4154 37.031C34.6701 37.1621 33.9431 37.3876 33.2392 37.6682C32.7723 37.8752 32.3053 38.1076 31.8682 38.379M51.7155 47.3181C52.4677 47.1824 53.19 46.9362 53.8985 46.651C55.7641 45.8459 57.5422 44.8268 59.1639 43.6007C59.6976 43.1683 60.2037 42.7013 60.6454 42.1745C60.8455 41.8939 61.0249 41.5995 61.1744 41.2912C61.2457 41.0865 61.3056 40.8772 61.3493 40.6632C61.3608 40.4723 61.3608 40.2791 61.3493 40.0882C61.301 39.8512 61.2388 39.6166 61.156 39.3888C61.0226 39.1128 60.8685 38.8506 60.6937 38.5998C60.4682 38.3353 60.2221 38.0892 59.9576 37.866C59.6838 37.6751 59.3963 37.5049 59.0949 37.3577C58.7959 37.2495 58.4899 37.1667 58.1794 37.1069C57.7492 37.0678 57.3168 37.0701 56.8866 37.1069C56.3506 37.1989 55.8285 37.3462 55.3201 37.5394C54.699 37.8246 54.1124 38.172 53.5649 38.5768C53.4637 38.6596 53.3648 38.7448 53.2682 38.8322C53.2452 38.8529 53.2222 38.8736 53.1969 38.8943C53.0014 39.0714 52.8127 39.2554 52.631 39.4487C52.4539 39.6396 52.2837 39.8374 52.1203 40.0398C51.566 40.8012 51.1036 41.6248 50.7194 42.4851C50.4756 43.0901 50.2663 43.7066 50.1007 44.3392C50.0155 44.6635 49.9304 44.9971 49.8683 45.3283C49.8476 45.5836 49.8476 45.8413 49.866 46.0966C49.9028 46.276 49.9488 46.4532 50.0063 46.6257C50.0569 46.7246 50.1122 46.8212 50.172 46.9155C50.2341 46.9822 50.2985 47.0489 50.3652 47.1111C50.4296 47.1525 50.4963 47.1916 50.5653 47.2261C50.6872 47.2652 50.8092 47.2997 50.9334 47.325C51.1956 47.3411 51.4555 47.3365 51.7178 47.3135M48.242 66.0497C49.4612 64.0277 50.6596 61.9942 51.8075 59.9308C52.5942 58.5184 53.3556 57.0899 54.0963 55.6522C53.1072 56.3055 52.1157 56.9565 51.122 57.6005C49.0264 58.9577 46.9216 60.2988 44.8306 61.6629C43.4044 62.5946 41.9759 63.5331 40.6187 64.5636C39.6043 65.3665 38.668 66.2636 37.8583 67.2734C37.4143 67.8784 37.0256 68.5179 36.7081 69.1965C36.5034 69.7187 36.3493 70.2547 36.2527 70.8067C36.2182 71.1978 36.2159 71.5911 36.2527 71.9822C36.3125 72.2974 36.3953 72.6056 36.5057 72.9046C36.6253 73.1508 36.7634 73.3854 36.9198 73.6108C37.0854 73.8041 37.2671 73.9835 37.4604 74.1491C37.672 74.294 37.8951 74.4252 38.1251 74.5402C38.4679 74.6667 38.8221 74.7587 39.1833 74.8231C39.5467 74.8553 39.9102 74.8576 40.2737 74.8277C40.644 74.7587 41.0052 74.6598 41.3571 74.5287C41.8471 74.3009 42.3071 74.0203 42.7442 73.7006C43.4481 73.1209 44.0761 72.4538 44.6466 71.743C44.7409 71.6188 44.8329 71.4968 44.9249 71.3703C45.3551 70.7699 45.7507 70.1442 46.1349 69.514C46.8388 68.3592 47.5473 67.2067 48.2443 66.0497" fill="#365F3D"></path>
  <path d="M104.281 35.4229H104.317C104.881 35.4229 105.472 35.1768 105.872 34.7788C106.254 34.3969 106.542 33.7713 106.517 33.2238C106.491 32.6556 106.305 32.0667 105.872 31.6688C105.442 31.2731 104.913 31.0247 104.317 31.0247H104.281C103.717 31.0247 103.126 31.2708 102.726 31.6688C102.344 32.0506 102.056 32.6763 102.082 33.2238C102.107 33.792 102.293 34.3808 102.726 34.7788C103.156 35.1745 103.685 35.4229 104.281 35.4229Z" fill="#365F3D"></path>
  <path d="M110.547 30.5603C110.558 30.5971 110.567 30.6293 110.574 30.65C110.57 30.6247 110.563 30.5994 110.561 30.5833C110.556 30.5764 110.551 30.5672 110.547 30.5603Z" fill="#365F3D"></path>
  <path d="M110.666 35.2733C110.186 35.7149 109.498 35.7172 109.015 35.2733C108.564 34.8592 108.564 34.0357 109.015 33.6216C109.217 33.4353 109.408 33.2398 109.587 33.0304C109.624 32.989 109.659 32.9453 109.693 32.9016C109.762 32.805 109.831 32.7084 109.896 32.6095C110.027 32.4093 110.146 32.2023 110.252 31.9884C110.303 31.8849 110.436 31.5099 110.305 31.8918C110.337 31.7952 110.381 31.6985 110.413 31.6019C110.473 31.4225 110.524 31.2385 110.56 31.0521C110.535 31.1971 110.565 31.0752 110.572 30.9969C110.579 30.9555 110.583 30.9164 110.593 30.875C110.586 30.9187 110.579 30.9532 110.572 30.9831C110.579 30.9003 110.583 30.8152 110.581 30.7324C110.581 30.7163 110.581 30.6887 110.577 30.6611C110.577 30.6588 110.577 30.6565 110.577 30.6542C110.577 30.6542 110.577 30.6542 110.577 30.6565C110.577 30.6404 110.574 30.622 110.572 30.6059C110.567 30.599 110.565 30.5921 110.56 30.5875C110.56 30.5829 110.56 30.5806 110.558 30.576C110.554 30.5691 110.549 30.5645 110.544 30.5576C110.544 30.5576 110.544 30.5622 110.544 30.5645C110.54 30.5576 110.535 30.5507 110.531 30.5415C110.531 30.5415 110.531 30.5392 110.531 30.5369C110.209 30.063 110.225 29.4718 110.636 29.0233C111.044 28.5793 111.885 28.5609 112.288 29.0233C113.038 29.8859 113.026 31.0775 112.7 32.1218C112.323 33.3249 111.593 34.4267 110.669 35.2756M110.524 30.4725C110.528 30.4932 110.533 30.507 110.537 30.5254C110.537 30.5254 110.542 30.53 110.542 30.5323C110.535 30.5139 110.528 30.4932 110.524 30.4748M110.583 30.645C110.583 30.6611 110.588 30.6749 110.588 30.6864C110.618 30.7485 110.623 30.6933 110.583 30.6289C110.583 30.6289 110.581 30.6243 110.579 30.622C110.579 30.6289 110.579 30.6381 110.581 30.6473" fill="#365F3D"></path>
  <path d="M110.572 30.995C110.572 30.995 110.572 30.9857 110.572 30.9834C110.567 31.0113 110.563 31.0346 110.56 31.0532C110.56 31.0415 110.565 31.0322 110.567 31.0206C110.567 31.0136 110.57 31.0043 110.572 30.9974" fill="#365F3D"></path>
  <path d="M222.522 48.2198C223.051 48.3394 223.477 48.7305 223.762 49.1744C224.047 49.6161 224.107 50.2763 223.971 50.7732C223.907 51.0423 223.783 51.2792 223.599 51.4794C223.451 51.7048 223.258 51.8842 223.017 52.0154C222.221 52.6157 221.386 53.1678 220.495 53.6256C219.612 54.0787 218.678 54.4675 217.717 54.7251C216.849 54.9575 215.945 55.084 215.053 55.1392C214.363 55.1829 213.67 55.1668 212.98 55.1231C211.86 55.0518 210.818 54.8333 209.836 54.2674C208.72 53.6233 207.811 52.6042 207.232 51.4334C205.932 51.7209 204.618 51.9417 203.294 52.0982C200.745 52.3995 198.157 52.3742 195.631 51.875C194.52 51.6565 193.42 51.3092 192.39 50.8284C192.392 50.8721 192.397 50.9135 192.399 50.9572C192.613 53.8993 192.737 56.8483 192.829 59.7974C192.878 61.38 192.914 62.9649 192.937 64.5475C192.956 65.9668 193.004 67.3953 192.944 68.8147C192.896 69.9924 192.726 71.207 192.323 72.3204C191.911 73.4567 191.364 74.4298 190.591 75.3568C189.436 76.7393 187.686 77.7307 185.917 78.0528C185.022 78.2161 184.116 78.2966 183.209 78.1885C182.671 78.1241 182.135 78.0528 181.611 77.9125C181.091 77.7744 180.601 77.5697 180.108 77.3558C178.471 76.645 177.031 75.3545 176.15 73.8018C175.048 71.858 174.857 69.6336 175.269 67.4667C175.54 66.0336 176.189 64.7362 176.817 63.4319C177.585 61.8309 178.363 60.2367 179.152 58.6472C180.148 56.6367 181.16 54.6377 182.186 52.641C181.443 52.5605 180.776 52.3673 180.095 52.0223C179.738 51.8405 179.421 51.5875 179.115 51.3368C178.924 51.1826 178.758 51.0078 178.606 50.8146C178.169 50.2579 177.808 49.6598 177.599 48.9904C176.785 49.6092 175.949 50.205 175.085 50.7433C174.569 51.063 174.04 51.3575 173.493 51.6151C172.743 51.967 171.963 52.2983 171.156 52.4938C170.668 52.6111 170.164 52.6824 169.667 52.7216C169.17 52.7607 168.694 52.7009 168.202 52.6272C167.245 52.4869 166.387 52.0039 165.665 51.3759C165.225 50.994 164.871 50.4948 164.556 50.0118C164.252 49.5471 164.013 49.0318 163.82 48.5074C162.49 49.6966 161.066 50.7824 159.553 51.714C157.202 53.1655 154.55 54.2743 151.798 54.6515C150.379 54.8471 148.976 54.923 147.55 54.7366C146.735 54.6308 145.935 54.5043 145.141 54.2858C144.38 54.0765 143.639 53.7981 142.919 53.4738C141.771 52.9585 140.725 52.1396 139.857 51.2355C138.887 50.2257 138.056 49.0456 137.437 47.7896C136.004 44.8797 135.482 41.6294 135.823 38.4066C135.99 36.7987 136.301 35.2184 136.816 33.6863C137.345 32.1152 138.033 30.5878 138.824 29.1317C139.885 27.1833 141.127 25.3453 142.489 23.5971C140.596 22.4837 138.808 21.1887 137.145 19.7578C135.022 17.9314 133.115 15.8105 131.615 13.4388C131.314 12.9627 131.284 12.3738 131.406 11.8378C131.528 11.3087 131.917 10.8832 132.361 10.5979C132.802 10.3127 133.462 10.2506 133.962 10.3886C134.484 10.5312 134.916 10.8924 135.201 11.3432C135.521 11.847 135.862 12.337 136.221 12.8155C137.674 14.6626 139.377 16.3028 141.221 17.7543C142.491 18.7181 143.828 19.5945 145.219 20.372C147.26 18.1315 149.468 16.0405 151.808 14.1128C154.377 11.9965 157.085 10.0344 159.935 8.31371C162.872 6.54016 165.98 5.05875 169.23 3.95919C172.297 2.92174 175.616 2.07982 178.862 2.6388C181.443 3.08506 183.856 4.93683 184.313 7.62131C184.539 8.9371 184.461 10.2299 184.12 11.5204C183.798 12.7372 183.265 13.9219 182.63 15.0077C181.293 17.2896 179.4 19.3001 177.323 20.9218C176.147 21.8419 174.93 22.6885 173.626 23.42C172.301 24.1653 170.914 24.7956 169.499 25.3545C166.967 26.3598 164.31 27.0361 161.612 27.4018C160.126 27.6043 158.64 27.7469 157.14 27.7676C155.67 27.7883 154.223 27.6825 152.769 27.457C150.522 27.1097 148.336 26.4058 146.248 25.4995C145.997 25.8054 145.751 26.1137 145.509 26.4242C143.874 28.5819 142.422 30.9259 141.339 33.408C140.711 34.9423 140.248 36.5364 140.002 38.1766C139.848 39.4993 139.825 40.8404 139.975 42.163C140.14 43.2166 140.421 44.2494 140.814 45.2409C141.18 46.0552 141.622 46.8304 142.146 47.5504C142.604 48.1186 143.112 48.6408 143.676 49.1008C144.085 49.393 144.518 49.6506 144.978 49.8622C145.877 50.2096 146.818 50.4534 147.77 50.603C148.831 50.7226 149.901 50.718 150.963 50.5984C152.261 50.3982 153.524 50.0348 154.74 49.5471C156.429 48.8064 158.007 47.8403 159.477 46.7315C161.641 45.027 163.56 43.0303 165.26 40.8657C165.384 40.7046 165.506 40.5413 165.626 40.3757C165.674 40.3113 165.72 40.2492 165.768 40.1848C165.798 40.1457 165.828 40.1066 165.856 40.0674C165.955 39.8995 166.074 39.7523 166.21 39.6212C166.364 39.4326 166.518 39.2462 166.677 39.0622C169.276 36.0626 173.026 33.9532 177.077 34.1487C177.99 34.1924 178.947 34.3074 179.812 34.6226C180.295 34.7997 180.796 35.0021 181.226 35.292C181.827 35.6968 182.241 36.1109 182.673 36.6814C183.384 37.6153 183.676 38.9311 183.582 40.0882C183.483 41.2958 183.136 42.4391 182.556 43.4972C182.538 43.5386 182.515 43.5777 182.492 43.6169C182.089 44.6152 181.689 45.6227 181.505 46.6855C181.484 46.9431 181.479 47.2008 181.498 47.4584C181.528 47.5964 181.562 47.7321 181.606 47.8656C181.641 47.9323 181.68 47.999 181.719 48.0634C181.783 48.1347 181.852 48.2014 181.923 48.2658C182.002 48.3141 182.08 48.3601 182.16 48.4038C182.28 48.4429 182.4 48.4752 182.522 48.5028C182.648 48.5097 182.775 48.5097 182.901 48.5028C183.106 48.4567 183.304 48.3946 183.501 48.321C183.897 48.1393 184.274 47.9254 184.629 47.6746C184.716 47.601 184.801 47.5297 184.884 47.4515C186.197 44.9671 187.529 42.492 188.884 40.0306C190.393 37.2887 191.928 34.5628 193.494 31.8553C194.819 29.5664 196.169 27.2914 197.561 25.0417C198.603 23.3602 199.664 21.6878 200.793 20.0638C201.285 19.3576 201.796 18.6675 202.327 17.9912C202.491 17.7842 202.656 17.5794 202.829 17.3793C203.321 16.8134 203.88 16.3856 204.699 16.3672C205.129 16.3557 205.571 16.4293 205.989 16.4937C206.224 16.5305 206.454 16.5834 206.68 16.6593C207.462 16.9215 208.069 17.2804 208.706 17.7888C209.695 18.5755 210.316 19.7256 210.744 20.8919C211.17 22.0559 211.322 23.3464 211.338 24.5793C211.358 25.9503 211.177 27.3397 210.878 28.6762C210.319 31.1675 209.21 33.5345 207.66 35.5634C206.898 36.5617 206.091 37.5026 205.171 38.356C204.248 39.214 203.247 39.9892 202.228 40.7276C200.177 42.2114 197.994 43.5064 195.857 44.859C194.976 45.4157 194.101 45.9839 193.234 46.5613C193.618 46.8005 194.019 47.0144 194.435 47.1985C195.406 47.5757 196.422 47.8265 197.453 47.9829C197.844 48.0312 198.235 48.068 198.628 48.0933C200.241 48.1922 201.858 48.1117 203.461 47.9139C204.076 47.8265 204.69 47.7252 205.297 47.6033C205.7 47.5228 206.098 47.4354 206.496 47.3411C206.537 46.9063 206.606 46.4716 206.682 46.0414C206.831 45.1903 207.068 44.353 207.393 43.5524C207.742 42.6898 208.129 41.8525 208.633 41.0681C209.095 40.3458 209.624 39.658 210.197 39.0162C211.087 38.0202 212.138 37.146 213.256 36.4145C214.211 35.7888 215.274 35.2805 216.401 35.0688C217.27 34.9055 218.177 34.8043 219.062 34.8986C220.005 34.9975 221.001 35.1723 221.802 35.7221C222.632 36.2926 223.224 37.0448 223.465 38.0386C223.585 38.5285 223.656 39.0553 223.628 39.5614C223.573 40.6264 223.258 41.6248 222.731 42.5518C221.662 44.4381 219.877 45.8804 218.089 47.0466C216.021 48.3946 213.723 49.4137 211.398 50.2303C211.49 50.3269 211.586 50.4212 211.687 50.5109C211.837 50.6099 211.991 50.7019 212.15 50.7824C212.359 50.8537 212.573 50.9089 212.789 50.9503C213.707 51.0423 214.655 51.0308 215.57 50.9296C216.325 50.8054 217.061 50.603 217.772 50.3246C218.897 49.8208 219.939 49.1583 220.921 48.4176C221.356 48.0887 222.014 48.0933 222.52 48.2083M153.742 17.8831C152.148 19.2495 150.614 20.6941 149.158 22.2146C150.747 22.7966 152.387 23.2382 154.062 23.4821C156.247 23.7351 158.481 23.6454 160.662 23.3763C163.447 22.9875 166.185 22.2583 168.786 21.1863C170.808 20.3076 172.736 19.2173 174.496 17.8877C175.821 16.8364 177.044 15.6426 178.098 14.3176C178.735 13.4572 179.29 12.5348 179.727 11.5549C179.961 10.9545 180.148 10.3357 180.26 9.70081C180.297 9.33276 180.302 8.9647 180.272 8.59665C180.233 8.40572 180.182 8.2171 180.12 8.03537C180.053 7.90195 179.977 7.77543 179.897 7.65122C179.793 7.5362 179.685 7.42808 179.57 7.32687C179.379 7.19805 179.177 7.08074 178.97 6.97952C178.56 6.8277 178.139 6.71728 177.709 6.64367C176.895 6.56776 176.074 6.59997 175.262 6.69428C172.722 7.07383 170.222 7.90655 167.85 8.88649C166.944 9.27525 166.051 9.69391 165.172 10.1425C162 11.7642 159.005 13.7356 156.178 15.8979C155.352 16.542 154.538 17.2022 153.742 17.8854M196.675 34.6502C195.252 37.1207 193.855 39.6074 192.48 42.1055C193.552 41.4131 194.633 40.7345 195.716 40.0559C197.425 38.984 199.141 37.912 200.749 36.6929C202.017 35.6922 203.185 34.5812 204.193 33.316C204.934 32.3245 205.578 31.2618 206.082 30.1323C206.558 28.9385 206.896 27.6917 207.087 26.4219C207.199 25.442 207.22 24.4528 207.114 23.4729C207.029 22.9668 206.905 22.4653 206.728 21.9846C206.606 21.7292 206.468 21.4831 206.307 21.2485C206.199 21.1265 206.084 21.0092 205.962 20.8988C205.842 20.8183 205.718 20.747 205.589 20.6826C205.555 20.6711 205.523 20.6619 205.488 20.6527C205.444 20.7079 205.401 20.7608 205.357 20.816C205.286 20.9103 205.214 21.0046 205.143 21.0989C203.85 22.8426 202.679 24.6828 201.529 26.5231C199.857 29.2007 198.251 31.9174 196.675 34.6502ZM175.46 45.4249C176.327 44.7417 177.113 43.9849 177.806 43.1269C178.176 42.63 178.524 42.1193 178.859 41.6018C178.963 41.4223 179.055 41.2383 179.142 41.052C179.262 40.7276 179.356 40.3987 179.421 40.0582C179.434 39.8742 179.437 39.6902 179.425 39.5085C179.402 39.405 179.375 39.3037 179.345 39.2025C179.315 39.1496 179.285 39.0944 179.253 39.0438C179.191 38.9771 179.126 38.9127 179.057 38.8506C178.938 38.7747 178.813 38.7034 178.687 38.6412C178.317 38.5078 177.932 38.4135 177.544 38.3491C176.888 38.2847 176.223 38.2824 175.565 38.3491C174.919 38.4572 174.289 38.6343 173.677 38.869C172.927 39.2094 172.218 39.6327 171.556 40.1204C170.654 40.845 169.847 41.68 169.127 42.5863C168.651 43.2235 168.209 43.8929 167.871 44.6129C167.733 44.9786 167.625 45.3513 167.553 45.7355C167.535 45.9977 167.535 46.2599 167.553 46.5222C167.604 46.7706 167.671 47.0167 167.756 47.256C167.901 47.5527 168.069 47.8334 168.257 48.1025C168.34 48.1968 168.427 48.2888 168.519 48.3762C168.584 48.4176 168.648 48.4544 168.715 48.4913C168.818 48.5235 168.924 48.5534 169.03 48.5764C169.244 48.5879 169.456 48.5833 169.67 48.5649C170.162 48.4728 170.643 48.3256 171.112 48.1462C172.672 47.4561 174.1 46.4601 175.453 45.4272M188.716 69.6382C188.877 68.2051 188.799 66.7375 188.785 65.2998C188.751 62.0494 188.657 58.8013 188.505 55.5556C188.422 53.7521 188.334 51.944 188.183 50.1406C188.162 50.1567 188.144 50.1705 188.123 50.1866C187.161 52.0108 186.211 53.8418 185.273 55.6775C183.375 59.3902 181.525 63.1282 179.736 66.8962C179.517 67.4851 179.345 68.09 179.237 68.7111C179.184 69.2126 179.177 69.7164 179.225 70.2202C179.294 70.5928 179.393 70.9609 179.527 71.3174C179.678 71.6349 179.855 71.9362 180.058 72.2237C180.299 72.509 180.564 72.7735 180.851 73.0151C181.206 73.2658 181.581 73.4843 181.972 73.6684C182.425 73.8409 182.894 73.9674 183.37 74.0502C183.835 74.0939 184.302 74.0939 184.767 74.0502C185.172 73.9766 185.572 73.8685 185.958 73.7259C186.28 73.5717 186.586 73.3923 186.878 73.1876C187.145 72.9622 187.394 72.7137 187.619 72.4469C187.874 72.088 188.091 71.7062 188.275 71.3059C188.477 70.7653 188.62 70.2064 188.716 69.6382ZM211.354 44.7624C211.193 45.1696 211.055 45.5836 210.94 46.0023C211.289 45.8712 211.637 45.7332 211.984 45.5905C212.357 45.4295 212.727 45.2639 213.093 45.0868C214.471 44.4266 215.807 43.6606 217.029 42.7404C217.643 42.2459 218.225 41.703 218.729 41.0957C218.952 40.7851 219.152 40.4585 219.318 40.1158C219.377 39.9478 219.426 39.7753 219.463 39.6005C219.469 39.474 219.469 39.3451 219.463 39.2186L219.456 39.1841C219.295 39.1335 219.129 39.0921 218.963 39.0599C218.508 39.0185 218.05 39.0254 217.595 39.0714C217.206 39.1381 216.822 39.237 216.451 39.375C215.858 39.6603 215.297 40.0214 214.768 40.4125C214.004 41.0244 213.307 41.7145 212.693 42.4759C212.168 43.189 211.717 43.9527 211.354 44.7601" fill="#365F3D"></path>
</svg>
